# Made in Blockbench 4.9.4
mtllib library_of_lament.mtl

o plane
v 1.1102230246251565e-16 1 -0.4999999999999997
v 1.1102230246251565e-16 1.1102230246251565e-16 -0.49999999999999994
v 0 1 2.5326962749261384e-16
v 0 0 3.122502256758253e-17
v 3.0531133177191805e-16 0.9999999999999991 0.5000000000000009
v 2.498001805406602e-16 -8.326672684688674e-16 0.4999999999999991
v 2.7755575615628914e-17 1 8.881784197001252e-16
v -2.7755575615628914e-17 5.551115123125783e-17 -8.881784197001252e-16
v 0.4999999999999985 1.0000000000000007 5.222976086675503e-15
v 0.49999999999999983 6.661338147750939e-16 1.0041285930999083e-15
v -1.5229447946721782e-15 1 4.812122922359663e-15
v -1.8776031715136444e-16 0 5.932754287840681e-16
v -0.5000000000000011 0.9999999999999989 9.494107596574924e-16
v -0.4999999999999989 -1.0547118733938987e-15 5.053215498074298e-16
v -1.1325616251644551e-15 1 2.2204460492503128e-16
v 1.1325616251644551e-15 5.551115123125783e-17 -2.220446049250313e-16
vt 0.5 0
vt 0 0
vt 0 1
vt 0.5 0
vt 0 1
vt 0.5 1
vt 0.5 0
vt 0 0
vt 0 1
vt 0.5 0
vt 0 1
vt 0.5 1
vt 0.5 0
vt 0 0
vt 0 1
vt 0.5 0
vt 0 1
vt 0.5 1
vt 0.5 0
vt 0 0
vt 0 1
vt 0.5 0
vt 0 1
vt 0.5 1
vn -1 4.930380657631324e-32 -2.220446049250313e-16
vn -1 4.930380657631324e-32 -2.220446049250313e-16
vn 1 -5.5511151231256866e-17 -5.551115123125784e-16
vn 1 -5.551115123125684e-17 -5.551115123125784e-16
vn 8.217063286316748e-16 4.218847493575596e-15 -1
vn 8.217063286316754e-16 4.218847493575596e-15 -1
vn 1.4547323094649232e-15 -4.4408920985005946e-16 1
vn 1.454732309464923e-15 -4.4408920985005936e-16 1
usemtl m_c1ec0149-5206-b31d-02ea-7b0ad003523a
f 3/1/1 1/2/1 2/3/1
f 3/4/2 2/5/2 4/6/2
f 7/7/3 5/8/3 6/9/3
f 7/10/4 6/11/4 8/12/4
f 11/13/5 9/14/5 10/15/5
f 11/16/6 10/17/6 12/18/6
f 15/19/7 13/20/7 14/21/7
f 15/22/8 14/23/8 16/24/8