# Made in Blockbench 4.9.4
mtllib 1_0.mtl

o 1
v 0.015625 0 -0.375
v 0.015625 0 -0.5
v -0.0625 0 -0.375
v -0.0625 0 -0.5
v -0.0234375 0.046875 -0.46875
v -0.0234375 0 -0.375
v -0.0234375 0.3099705680456796 -0.4673626508798381
v 0.015625 0.2630955680456796 -0.4986126508798381
v -0.0625 0.2630955680456796 -0.4986126508798381
v 0.140625 0 -0.375
v 0.140625 0 -0.5
v 0.0625 0 -0.375
v 0.0625 0 -0.5
v 0.1015625 0.046875 -0.46875
v 0.1015625 0 -0.375
v 0.140625 0.2630955680456796 -0.4986126508798381
v 0.1015625 0.3099705680456796 -0.4673626508798381
v 0.0625 0.2630955680456796 -0.4986126508798381
v 0.18452189182435158 0.109375 -0.296875
v 0.05952189182435161 0.578125 -0.453125
v 0.3221687836487032 0.109375 -0.5
v 0.08779378364870322 0.578125 -0.5
v 0.18452189182435158 0.109375 -0.703125
v 0.05952189182435161 0.578125 -0.546875
v -0.15327189182435164 0.109375 -0.703125
v -0.028271891824351636 0.578125 -0.546875
v -0.2596687836487032 0.109375 -0.5
v -0.0565437836487032 0.578125 -0.5
v -0.1532718918243518 0.109375 -0.296875
v -0.028271891824351636 0.578125 -0.453125
v 0.09425700333223952 0.6142746662291939 -0.48831795437007003
v 0.05952189182435161 0.609375 -0.453125
v -0.028271891824351636 0.609375 -0.453125
v -0.060855658139348595 0.6174469857748258 -0.5096883862798997
v 0.05952189182435161 0.609375 -0.546875
v -0.028271891824351636 0.609375 -0.546875
v -0.04727980355788462 0.703125 -0.4375
v -0.10005050054758466 0.6973972320584345 -0.5101973587671915
v 0.07852980355788458 0.703125 -0.4375
v 0.13064351742365055 0.6974837255275731 -0.5
v 0.07852980355788458 0.703125 -0.5625
v -0.04727980355788462 0.703125 -0.5625
v -0.04727980355788462 0.734375 -0.453125
v -0.0877937836487032 0.734375 -0.5
v 0.07852980355788458 0.734375 -0.453125
v 0.11904378364870322 0.734375 -0.5
v 0.07852980355788458 0.734375 -0.546875
v -0.04727980355788462 0.734375 -0.546875
v 0.03101002422405217 0.75 -0.5
v 0.0002399757759478302 0.75 -0.5
v -0.009668783648703203 0.75 -0.5
v 0.04091878364870323 0.75 -0.5
v -0.015385024224052177 0.75 -0.5
v 0.046635024224052135 0.75 -0.5
v -0.22841878364870322 0.765625 -0.5
v -0.24337541344353203 0.671875 -0.4898026412328085
v -0.198999311940062 0.6143176387892498 -0.5243273371917009
v -0.13241614757052583 0.48118432815335127 -0.5133710202654413
v -0.06414904185366958 0.49310909232808436 -0.4429222638788268
v -0.159196247508052 0.420243047359026 -0.45330328531051
v -0.10008851676785034 0.40588645583472166 -0.4189088533985261
v 0.2596687836487032 0.6875 -0.5
v 0.21279378364870322 0.765625 -0.5
v 0.1947308301902196 0.6258109095530093 -0.5273858239829012
v 0.10332634606721591 0.5061561841627218 -0.45635450276674566
v 0.13788622123019045 0.5058604077728518 -0.500844452980775
v 0.17677652548203748 0.4178915807311574 -0.43524187999870106
v 0.20531221746682116 0.43253141709052767 -0.4815583738137601
v -0.06189832349227131 0.7697642353760523 -0.5522901419494677
v 0.09314832349227142 0.7697642353760523 -0.4477098580505324
v -0.06189832349227116 0.9252072014783959 -0.5522901419494676
v 0.09314832349227159 0.9252072014783959 -0.4477098580505323
v 0.1403850242240522 0.7385142353760523 -0.5032072938718429
v 0.07788502422405214 0.71875 -0.5
v -0.04663502422405218 0.71875 -0.5
v -0.10913502422405212 0.7385142353760523 -0.5032072938718429
v 0.1586070775169669 0.55130732413755 -0.5147455929556031
v 0.10448048978043958 0.55130732413755 -0.4705514191314439
v -0.1808895427477986 0.566909499858839 -0.4650193688788822
v -0.07421904264823917 0.5328030589610682 -0.4849594847962129
vt 0.4177791748046875 0.0068359375
vt 0.4772403564453125 0.00537109375
vt 0.4777286376953125 0.18085363769531249
vt 0.4158260498046875 0.18427160644531249
vt 0.4719783935546875 0.18085363769531249
vt 0.4822322998046875 0.00341796875
vt 0.5299747314453125 0.00537109375
vt 0.5280216064453125 0.18280676269531249
vt 0.3973334161264546 0.6881678933562863
vt 0.32030014695936826 0.4874893662314955
vt 0.2767800696617099 0.4631723702073569
vt 0.3538133388287963 0.6638508973321477
vt 0.3538133388287963 0.6638508973321477
vt 0.2767800696617099 0.4631723702073569
vt 0.2607095957080367 0.5103640356848165
vt 0.33774286487512295 0.7110425628096071
vt 0.5364315185546875 0.00341796875
vt 0.5958927001953125 0.001953125
vt 0.5963809814453125 0.17743566894531249
vt 0.5344783935546875 0.18085363769531249
vt 0.5867244873046875 0.17743566894531249
vt 0.5969783935546875 0
vt 0.6447208251953125 0.001953125
vt 0.6427677001953125 0.17938879394531249
vt 0.6178186793796946 0.6933963515113858
vt 0.7302793331653107 0.5216906813206637
vt 0.7757267275042876 0.5078583569388682
vt 0.6632660737186713 0.6795640271295905
vt 0.6632660737186713 0.6795640271295905
vt 0.7757267275042876 0.5078583569388682
vt 0.7811005228437894 0.5552106686189971
vt 0.6686398690581731 0.7269163388097193
vt 0.7102712472647958 0.18533954084921933
vt 0.8543925105679486 0.2230998912347295
vt 0.6037175158141637 0.6405988900165509
vt 0.5527684937368406 0.6352277962665509
vt 0.244140625 0.20345096415025865
vt 0.37295753980423896 0.17996844709921933
vt 0.46649544958219413 0.6352277962665509
vt 0.4433784587548708 0.6435285775165509
vt 0.37295753980423896 0.17996844709921933
vt 0.7102712472647958 0.18533954084921933
vt 0.5527684937368406 0.6352277962665509
vt 0.46649544958219413 0.6352277962665509
vt 0.244140625 0.20345096415025865
vt 0.37295753980423896 0.17996844709921933
vt 0.46649544958219413 0.6352277962665509
vt 0.4550972087548708 0.6645246712665509
vt 0.244140625 0.20345096415025865
vt 0.37295753980423896 0.17996844709921933
vt 0.46649544958219413 0.6352277962665509
vt 0.4433784587548708 0.6386457650165509
vt 0.37295753980423896 0.17996844709921933
vt 0.7102712472647958 0.18533954084921933
vt 0.5527684937368406 0.6352277962665509
vt 0.46649544958219413 0.6352277962665509
vt 0.5932114097112829 0.6387196216446577
vt 0.5932114097112829 0.6737638486422763
vt 0.5637071629002549 0.6737638486422763
vt 0.5637071629002549 0.6387196216446577
vt 0.5507698012412665 0.639117134460037
vt 0.5507698012412665 0.6741613614576557
vt 0.4591491386645146 0.6741613614576557
vt 0.4591491386645146 0.639117134460037
vt 0.47208650032350297 0.6387196216446577
vt 0.47208650032350297 0.6737638486422763
vt 0.44258225351247504 0.6737638486422763
vt 0.44258225351247504 0.6387196216446577
vt 0.4713864168233448 0.6401889968670321
vt 0.4713864168233448 0.6728498599087517
vt 0.44183811644557014 0.6728498599087517
vt 0.44183811644557014 0.6401889968670321
vt 0.5631438806206136 0.6401889968670321
vt 0.5631438806206136 0.6728498599087517
vt 0.4713864168233448 0.6728498599087517
vt 0.4713864168233448 0.6401889968670321
vt 0.5926921809983883 0.6401889968670321
vt 0.5926921809983883 0.6728498599087517
vt 0.5631438806206136 0.6728498599087517
vt 0.5631438806206136 0.6401889968670321
vt 0.4715519868698262 0.6639868833272783
vt 0.4514784188436083 0.7629928671954569
vt 0.4086930699443304 0.7629928671954569
vt 0.44169506456705676 0.6639868833272783
vt 0.5642678260980917 0.6639868833272783
vt 0.5843413941243096 0.7629928671954569
vt 0.4514784188436083 0.7629928671954569
vt 0.4715519868698262 0.6639868833272783
vt 0.5943175231331775 0.6665546656641872
vt 0.6261953166729526 0.7621880462835123
vt 0.5848674353030431 0.7621880462835123
vt 0.5654776661554005 0.6665546656641872
vt 0.4710373461600712 0.6743671656641872
vt 0.4516475770124285 0.7700005462835123
vt 0.410319695642519 0.7700005462835123
vt 0.44219748918229407 0.6743671656641872
vt 0.5605948536554005 0.6743671656641872
vt 0.5799846228030431 0.7700005462835123
vt 0.4516475770124285 0.7700005462835123
vt 0.4710373461600712 0.6743671656641872
vt 0.5894347106331775 0.6743671656641872
vt 0.6213125041729526 0.7700005462835123
vt 0.5799846228030431 0.7700005462835123
vt 0.5605948536554005 0.6743671656641872
vt 0.4514784188436083 0.7629928671954569
vt 0.4514784188436083 0.7959948618181831
vt 0.4086930699443304 0.7959948618181831
vt 0.4086930699443304 0.7629928671954569
vt 0.5843413941243096 0.7629928671954569
vt 0.5843413941243096 0.7959948618181831
vt 0.4514784188436083 0.7959948618181831
vt 0.4514784188436083 0.7629928671954569
vt 0.6271267430235875 0.7629928671954569
vt 0.6271267430235875 0.7959948618181831
vt 0.5843413941243096 0.7959948618181831
vt 0.5843413941243096 0.7629928671954569
vt 0.4516475770124285 0.7700005462835123
vt 0.4516475770124285 0.8018783398232874
vt 0.410319695642519 0.8018783398232874
vt 0.410319695642519 0.7700005462835123
vt 0.5799846228030431 0.7700005462835123
vt 0.5799846228030431 0.8018783398232874
vt 0.4516475770124285 0.8018783398232874
vt 0.4516475770124285 0.7700005462835123
vt 0.6213125041729526 0.7700005462835123
vt 0.6213125041729526 0.8018783398232874
vt 0.5799846228030431 0.8018783398232874
vt 0.5799846228030431 0.7700005462835123
vt 0.5843413941243096 0.7959948618181831
vt 0.5341574740587649 0.8124958591295462
vt 0.501662338909153 0.8124958591295462
vt 0.4514784188436083 0.7959948618181831
vt 0.4514784188436083 0.7959948618181831
vt 0.501662338909153 0.8124958591295462
vt 0.49119805650114606 0.8124958591295462
vt 0.4086930699443304 0.7959948618181831
vt 0.6271267430235875 0.7959948618181831
vt 0.5446217564667718 0.8124958591295462
vt 0.5341574740587649 0.8124958591295462
vt 0.5843413941243096 0.7959948618181831
vt 0.541618020323515 0.817817236593175
vt 0.5315101999339366 0.817817236593175
vt 0.6213125041729526 0.8018783398232874
vt 0.5799846228030431 0.8018783398232874
vt 0.4514784188436083 0.7959948618181831
vt 0.5843413941243096 0.7959948618181831
vt 0.5341574740587649 0.8124958591295462
vt 0.501662338909153 0.8124958591295462
vt 0.502075124881535 0.812446142843175
vt 0.4919673044919566 0.812446142843175
vt 0.4584835145124285 0.7813705273232874
vt 0.412272820642519 0.7965072460732874
vt 0.40925300347596316 0.794869154020296
vt 0.27262327450024737 0.8252313160148995
vt 0.25744219350294556 0.734144830031089
vt 0.40925300347596316 0.7645069920256925
vt 0.40925300347596316 0.7645069920256925
vt 0.25744219350294556 0.734144830031089
vt 0.3181665174921527 0.7037826680364855
vt 0.43961516547056667 0.6734205060418819
vt 0.2670672786649357 0.5669964710165679
vt 0.2926168980785442 0.6353895695265267
vt 0.39888446505965647 0.6050274075319231
vt 0.35815376464874626 0.5366343090219643
vt 0.2670672786649357 0.5669964710165679
vt 0.25117728896852426 0.4844612116451317
vt 0.31190161295773133 0.4540990496505283
vt 0.35815376464874626 0.5366343090219643
vt 0.6183507540646089 0.7587645449744307
vt 0.7558160279681637 0.7434906256518135
vt 0.709994270000312 0.8198602222648995
vt 0.6183507540646089 0.7893123836196652
vt 0.5878029154193746 0.6671210290387276
vt 0.6794464313550778 0.697668867683962
vt 0.7558160279681637 0.7434906256518135
vt 0.6183507540646089 0.7587645449744307
vt 0.5878029154193746 0.6671210290387276
vt 0.6604922463453199 0.6049862410659971
vt 0.722213405458406 0.6350457984612314
vt 0.6794464313550778 0.697668867683962
vt 0.7141386085212652 0.5457811405932667
vt 0.7574661858727801 0.46373280541970474
vt 0.8032879438406316 0.4942806440649392
vt 0.764980379561734 0.572422729238501
vt 0.4253826863723754 0.8505330893680196
vt 0.6052126881324873 0.8505330893680196
vt 0.4854798535117891 0.8315286964595823
vt 0.5451155209930734 0.8315286964595823
vt 0.4253826863723754 0.8505330893680196
vt 0.4253826863723756 1
vt 0.6052126881324875 1
vt 0.6052126881324873 0.8505330893680196
vt 0.6052126881324873 0.8505330893680196
vt 0.6352612717021942 0.8204845057983128
vt 0.5751641045627804 0.8014801128898754
vt 0.5451155209930734 0.8315286964595823
vt 0.4854798535117891 0.8315286964595823
vt 0.4554312699420823 0.8014801128898754
vt 0.3953341028026685 0.8204845057983128
vt 0.4253826863723754 0.8505330893680196
vt 0.767910067061734 0.569493041738501
vt 0.725143092958406 0.6321161109612314
vt 0.6636962890625 0.5994873046875
vt 0.7158203125 0.54296875
vt 0.3181665174921527 0.7037826680364855
vt 0.2926168980785442 0.6353895695265267
vt 0.39888446505965647 0.6050274075319231
vt 0.43961516547056667 0.6734205060418819
vn 0 0.894427190999916 0.447213595499958
vn 0 0.894427190999916 0.447213595499958
vn 0.621662838976066 -0.0041303416385645095 0.7832740611779293
vn -0.621662838976066 -0.0041303416385645095 0.7832740611779293
vn 0 0.894427190999916 0.447213595499958
vn 0 0.894427190999916 0.447213595499958
vn 0.621662838976066 -0.0041303416385645095 0.7832740611779293
vn -0.621662838976066 -0.0041303416385645095 0.7832740611779293
vn 0.7648970678774609 0.38244853393873046 0.518329619489933
vn 0.7665573138269317 0.3775668433236966 -0.5194546789095446
vn 0 0.316227766016838 -0.948683298050514
vn -0.8269988041336429 0.3583661484579119 -0.4331820421035093
vn -0.8250435238885081 0.36406422841998776 0.43215786614915586
vn 0 0.316227766016838 0.948683298050514
vn 0.694290306310359 -0.33070045730719155 0.6392168474784454
vn 0 0 1
vn -0.8665100333284816 0 0.49915965596297307
vn 0.8600683101704235 0 -0.5101788919982798
vn 0 0 -1
vn -0.7558839585479115 -0.23358149870752629 -0.6116200819720402
vn -0.7731922430122594 -0.25363903095505674 0.581240911603658
vn 0 -0.16439898730535732 0.9863939238321439
vn 0.7364771628670324 -0.2328887929989902 0.6351095957949306
vn 0.731502290703913 -0.2537874929969862 -0.6328477756089791
vn 0 -0.16439898730535732 -0.9863939238321439
vn -0.648504778885207 -0.32231336359268353 -0.6896054287870852
vn -0.7191148038292561 0.31076483035041486 0.6215296607008297
vn 0 0.44721359549995804 0.8944271909999161
vn 0.7360350916644081 0.23143172022173905 0.6361538357298282
vn 0.7191148038292556 0.3107648303504151 -0.6215296607008302
vn 0 0.44721359549995804 -0.8944271909999161
vn -0.6947638069666373 0.39588288015559164 -0.6004831369230436
vn 0 0.948683298050514 0.316227766016838
vn 0 0.9486832980505139 0.3162277660168379
vn 0 0 1
vn 0 0 1
vn 0 0.948683298050514 -0.316227766016838
vn 0 -0.948683298050514 0.316227766016838
vn 0.02320991332508855 0.10444460996289849 0.9942598369506536
vn 0.19720382956998023 -0.38799585446270235 0.9003165368483975
vn -0.007020838061063576 0.48824703706596184 -0.8726772247682587
vn -0.20170146671063766 0.7310844226531611 0.6517914430864153
vn 0 0 1
vn 0.33788025047293396 -0.6555030239126168 0.6753907920469178
vn 0.6021483262635909 0.30584879098157447 0.7374780744083618
vn 0.5747394633962822 0.6090192998579907 0.546598611062484
vn 0.4203410684048184 -0.6595138372715028 -0.6231812614799274
vn 0.559192903470747 -1.0507210681716888e-16 -0.8290375725550416
vn -0.2626739847437985 0.7278575312616525 -0.6334238643471742
vn 0.038928578450692614 -0.038928578450692614 -0.9984834157659389
vn 0.6316208162428716 -0.051360113139695525 0.7735743553576259
vn 0.34681918506707643 0.7814274813647795 0.5187364882455315
usemtl m_e3a0a224-293a-0f4d-f2f1-3a8d45320f75
f 3/1/1 6/2/1 5/3/1
f 3/1/1 5/3/1 4/4/1
f 5/5/2 6/6/2 1/7/2
f 5/5/2 1/7/2 2/8/2
f 2/9/3 8/10/3 7/11/3
f 2/9/3 7/11/3 5/12/3
f 5/13/4 7/14/4 9/15/4
f 5/13/4 9/15/4 4/16/4
f 12/17/5 15/18/5 14/19/5
f 12/17/5 14/19/5 13/20/5
f 14/21/6 15/22/6 10/23/6
f 14/21/6 10/23/6 11/24/6
f 11/25/7 16/26/7 17/27/7
f 11/25/7 17/27/7 14/28/7
f 14/29/8 17/30/8 18/31/8
f 14/29/8 18/31/8 13/32/8
f 19/33/9 21/34/9 22/35/9
f 19/33/9 22/35/9 20/36/9
f 21/37/10 23/38/10 24/39/10
f 21/37/10 24/39/10 22/40/10
f 23/41/11 25/42/11 26/43/11
f 23/41/11 26/43/11 24/44/11
f 25/45/12 27/46/12 28/47/12
f 25/45/12 28/47/12 26/48/12
f 27/49/13 29/50/13 30/51/13
f 27/49/13 30/51/13 28/52/13
f 29/53/14 19/54/14 20/55/14
f 29/53/14 20/55/14 30/56/14
f 22/57/15 31/58/15 32/59/15
f 22/57/15 32/59/15 20/60/15
f 20/61/16 32/62/16 33/63/16
f 20/61/16 33/63/16 30/64/16
f 30/65/17 33/66/17 34/67/17
f 30/65/17 34/67/17 28/68/17
f 24/69/18 35/70/18 31/71/18
f 24/69/18 31/71/18 22/72/18
f 26/73/19 36/74/19 35/75/19
f 26/73/19 35/75/19 24/76/19
f 28/77/20 34/78/20 36/79/20
f 28/77/20 36/79/20 26/80/20
f 33/81/21 37/82/21 38/83/21
f 33/81/21 38/83/21 34/84/21
f 32/85/22 39/86/22 37/87/22
f 32/85/22 37/87/22 33/88/22
f 31/89/23 40/90/23 39/91/23
f 31/89/23 39/91/23 32/92/23
f 35/93/24 41/94/24 40/95/24
f 35/93/24 40/95/24 31/96/24
f 36/97/25 42/98/25 41/99/25
f 36/97/25 41/99/25 35/100/25
f 34/101/26 38/102/26 42/103/26
f 34/101/26 42/103/26 36/104/26
f 37/105/27 43/106/27 44/107/27
f 37/105/27 44/107/27 38/108/27
f 39/109/28 45/110/28 43/111/28
f 39/109/28 43/111/28 37/112/28
f 40/113/29 46/114/29 45/115/29
f 40/113/29 45/115/29 39/116/29
f 41/117/30 47/118/30 46/119/30
f 41/117/30 46/119/30 40/120/30
f 42/121/31 48/122/31 47/123/31
f 42/121/31 47/123/31 41/124/31
f 38/125/32 44/126/32 48/127/32
f 38/125/32 48/127/32 42/128/32
f 45/129/33 49/130/33 50/131/33
f 45/129/33 50/131/33 43/132/33
f 43/133/34 50/134/34 51/135/34
f 43/133/34 51/135/34 44/136/34
f 46/137/35 52/138/35 49/139/35
f 46/137/35 49/139/35 45/140/35
f 51/141/36 53/142/36 44/143/36
f 51/141/36 44/143/36 48/144/36
f 47/145/37 48/146/37 53/147/37
f 47/145/37 53/147/37 54/148/37
f 54/149/38 52/150/38 47/151/38
f 54/149/38 47/151/38 46/152/38
f 44/153/39 55/154/39 56/155/39
f 44/153/39 56/155/39 38/156/39
f 38/157/40 56/158/40 57/159/40
f 38/157/40 57/159/40 34/160/40
f 58/161/41 79/162/41 80/163/41
f 58/161/41 80/163/41 59/164/41
f 58/165/42 60/166/42 61/167/42
f 58/165/42 61/167/42 59/168/42
f 40/169/43 62/170/43 63/171/43
f 40/169/43 63/171/43 46/172/43
f 31/173/44 64/174/44 62/175/44
f 31/173/44 62/175/44 40/176/44
f 31/177/45 78/178/45 77/179/45
f 31/177/45 77/179/45 64/180/45
f 65/181/46 67/182/46 68/183/46
f 65/181/46 68/183/46 66/184/46
f 69/185/47 70/186/47 53/187/47
f 69/185/47 53/187/47 54/188/47
f 69/189/48 71/190/48 72/191/48
f 69/189/48 72/191/48 70/192/48
f 70/193/49 73/194/49 74/195/49
f 70/193/49 74/195/49 54/196/49
f 53/197/50 75/198/50 76/199/50
f 53/197/50 76/199/50 69/200/50
f 66/201/51 77/202/51 78/203/51
f 66/201/51 78/203/51 65/204/51
f 57/205/52 79/206/52 80/207/52
f 57/205/52 80/207/52 34/208/52