# Made in Blockbench 4.9.4
mtllib 1_2.mtl

o 1
v 0.015625 0 -0.375
v 0.015625 0 -0.5
v -0.0625 0 -0.375
v -0.0625 0 -0.5
v -0.0234375 0.046875 -0.46875
v -0.0234375 0 -0.375
v -0.0234375 0.3099705680456796 -0.4673626508798381
v 0.015625 0.2630955680456796 -0.4986126508798381
v -0.0625 0.2630955680456796 -0.4986126508798381
v 0.140625 0 -0.375
v 0.140625 0 -0.5
v 0.0625 0 -0.375
v 0.0625 0 -0.5
v 0.1015625 0.046875 -0.46875
v 0.1015625 0 -0.375
v 0.140625 0.2630955680456796 -0.4986126508798381
v 0.1015625 0.3099705680456796 -0.4673626508798381
v 0.0625 0.2630955680456796 -0.4986126508798381
v 0.16999102124961576 0.10371424250410864 -0.2968749999999995
v 0.06142630695152633 0.576541129757123 -0.453125
v 0.3075540623065629 0.0989104352567753 -0.5
v 0.08968097630325954 0.5755544549616254 -0.5
v 0.16999102124961576 0.10371424250410864 -0.703125
v 0.06142630695152633 0.576541129757123 -0.546875
v -0.16759698755297123 0.11550307554268195 -0.703125
v -0.026313995096286798 0.5796050886200709 -0.546875
v -0.2739290652655715 0.11921627351806234 -0.5
v -0.05456866444801998 0.5805917634155684 -0.5
v -0.1675969875529714 0.11550307554268195 -0.2968749999999995
v -0.026313995096286798 0.5796050886200709 -0.453125
v 0.09252257492644059 0.6050170491269956 -0.48831795437007003
v 0.057637627224562935 0.6013326055516144 -0.45312499999999983
v -0.03010267482325024 0.6043965644145625 -0.45312499999999983
v -0.06238488374726085 0.6136007899988173 -0.5096883862798997
v 0.057637627224562935 0.6013326055516144 -0.546875
v -0.03010267482325024 0.6043965644145625 -0.546875
v -0.0458271796346723 0.6987528210004685 -0.43749999999999983
v -0.09876562635997219 0.6948702130259549 -0.5101973587671915
v 0.07990578766770384 0.6943621290317888 -0.43749999999999983
v 0.1317908776272 0.6869055486861348 -0.5
v 0.07990578766770384 0.6943621290317888 -0.5625
v -0.0458271796346723 0.6987528210004685 -0.5625
v -0.04473657036271918 0.7299837843448154 -0.45312499999999983
v -0.08522587043151754 0.7313977018594002 -0.5
v 0.08099639693965699 0.7255930923761362 -0.45312499999999983
v 0.12148569700845543 0.7241791748615511 -0.5
v 0.08099639693965699 0.7255930923761362 -0.546875
v -0.04473657036271918 0.7299837843448154 -0.546875
v 0.034050870007429845 0.7428669904304737 -0.5
v 0.003299565841461221 0.7439408496348242 -0.5
v -0.006603157434674049 0.7442866603516908 -0.5
v 0.04395359328356517 0.7425211797136075 -0.5
v -0.012315915830712173 0.744486154270801 -0.5
v 0.049666351679603205 0.7423216857944972 -0.5
v -0.2246745962091249 0.7675364069275361 -0.5
v -0.24289394264505682 0.6743654957467007 -0.4898026412328085
v -0.2005535968013999 0.6152944933171622 -0.5243273371917009
v -0.12615727863211107 0.4799185649716047 -0.5133710202654413
v -0.05751559112354793 0.48945357727134425 -0.4429222638788268
v -0.1550478848844572 0.4199490199684233 -0.45330328531050984
v -0.09647719879534661 0.4035383440377132 -0.4189088533985261
v 0.2603891181500864 0.6724249881212417 -0.5
v 0.21626919631344893 0.7521383103900381 -0.5
v 0.1933378049296497 0.6130397788939591 -0.5273858239829012
v 0.10948392148809397 0.5061119725907041 -0.45635450276674566
v 0.1434673934606277 0.4998194303663552 -0.500844452980775
v 0.15617013366625396 0.4188386844623523 -0.43524187999870106
v 0.18681448527558409 0.42830093790026763 -0.4815583738137601
v -0.07296201963847665 0.7658616405431073 -0.4885123733495841
v 0.11296116034359382 0.7604505905979366 -0.5080005801777371
v -0.0688063194771187 0.92120991499043 -0.49199941982226275
v 0.11711686050495174 0.9157988650452593 -0.5114876266504157
v 0.14295839430802426 0.7275710901721641 -0.5032072938718429
v 0.07980670575199697 0.7100001131781974 -0.5
v -0.04463748844701207 0.7143458001984072 -0.5
v -0.10640965326837164 0.7362792142801866 -0.5032072938718429
v 0.16768064362913604 0.5585684967000908 -0.5147455929556031
v 0.11358702834740614 0.5604574873703195 -0.4705514191314439
v -0.1841093797794922 0.5672832123138544 -0.46501936887888207
v -0.07869415808809865 0.5294748013718746 -0.4849594847962129
vt 0.4177791748046875 0.0068359375
vt 0.4772403564453125 0.00537109375
vt 0.4777286376953125 0.18085363769531249
vt 0.4158260498046875 0.18427160644531249
vt 0.4719783935546875 0.18085363769531249
vt 0.4822322998046875 0.00341796875
vt 0.5299747314453125 0.00537109375
vt 0.5280216064453125 0.18280676269531249
vt 0.3973334161264546 0.6881678933562863
vt 0.32030014695936826 0.4874893662314955
vt 0.2767800696617099 0.4631723702073569
vt 0.3538133388287963 0.6638508973321477
vt 0.3538133388287963 0.6638508973321477
vt 0.2767800696617099 0.4631723702073569
vt 0.2607095957080367 0.5103640356848165
vt 0.33774286487512295 0.7110425628096071
vt 0.5364315185546875 0.00341796875
vt 0.5958927001953125 0.001953125
vt 0.5963809814453125 0.17743566894531249
vt 0.5344783935546875 0.18085363769531249
vt 0.5867244873046875 0.17743566894531249
vt 0.5969783935546875 0
vt 0.6447208251953125 0.001953125
vt 0.6427677001953125 0.17938879394531249
vt 0.6178186793796946 0.6933963515113858
vt 0.7302793331653107 0.5216906813206637
vt 0.7757267275042876 0.5078583569388682
vt 0.6632660737186713 0.6795640271295905
vt 0.6632660737186713 0.6795640271295905
vt 0.7757267275042876 0.5078583569388682
vt 0.7811005228437894 0.5552106686189971
vt 0.6686398690581731 0.7269163388097193
vt 0.7102712472647958 0.18533954084921933
vt 0.8543925105679486 0.2230998912347295
vt 0.6037175158141637 0.6405988900165509
vt 0.5527684937368406 0.6352277962665509
vt 0.244140625 0.20345096415025865
vt 0.37295753980423896 0.17996844709921933
vt 0.46649544958219413 0.6352277962665509
vt 0.4433784587548708 0.6435285775165509
vt 0.37295753980423896 0.17996844709921933
vt 0.7102712472647958 0.18533954084921933
vt 0.5527684937368406 0.6352277962665509
vt 0.46649544958219413 0.6352277962665509
vt 0.244140625 0.20345096415025865
vt 0.37295753980423896 0.17996844709921933
vt 0.46649544958219413 0.6352277962665509
vt 0.4550972087548708 0.6645246712665509
vt 0.244140625 0.20345096415025865
vt 0.37295753980423896 0.17996844709921933
vt 0.46649544958219413 0.6352277962665509
vt 0.4433784587548708 0.6386457650165509
vt 0.37295753980423896 0.17996844709921933
vt 0.7102712472647958 0.18533954084921933
vt 0.5527684937368406 0.6352277962665509
vt 0.46649544958219413 0.6352277962665509
vt 0.5932114097112829 0.6387196216446577
vt 0.5932114097112829 0.6737638486422763
vt 0.5637071629002549 0.6737638486422763
vt 0.5637071629002549 0.6387196216446577
vt 0.5507698012412665 0.639117134460037
vt 0.5507698012412665 0.6741613614576557
vt 0.4591491386645146 0.6741613614576557
vt 0.4591491386645146 0.639117134460037
vt 0.47208650032350297 0.6387196216446577
vt 0.47208650032350297 0.6737638486422763
vt 0.44258225351247504 0.6737638486422763
vt 0.44258225351247504 0.6387196216446577
vt 0.4713864168233448 0.6401889968670321
vt 0.4713864168233448 0.6728498599087517
vt 0.44183811644557014 0.6728498599087517
vt 0.44183811644557014 0.6401889968670321
vt 0.5631438806206136 0.6401889968670321
vt 0.5631438806206136 0.6728498599087517
vt 0.4713864168233448 0.6728498599087517
vt 0.4713864168233448 0.6401889968670321
vt 0.5926921809983883 0.6401889968670321
vt 0.5926921809983883 0.6728498599087517
vt 0.5631438806206136 0.6728498599087517
vt 0.5631438806206136 0.6401889968670321
vt 0.4715519868698262 0.6639868833272783
vt 0.4514784188436083 0.7629928671954569
vt 0.4086930699443304 0.7629928671954569
vt 0.44169506456705676 0.6639868833272783
vt 0.5642678260980917 0.6639868833272783
vt 0.5843413941243096 0.7629928671954569
vt 0.4514784188436083 0.7629928671954569
vt 0.4715519868698262 0.6639868833272783
vt 0.5943175231331775 0.6665546656641872
vt 0.6261953166729526 0.7621880462835123
vt 0.5848674353030431 0.7621880462835123
vt 0.5654776661554005 0.6665546656641872
vt 0.4710373461600712 0.6743671656641872
vt 0.4516475770124285 0.7700005462835123
vt 0.410319695642519 0.7700005462835123
vt 0.44219748918229407 0.6743671656641872
vt 0.5605948536554005 0.6743671656641872
vt 0.5799846228030431 0.7700005462835123
vt 0.4516475770124285 0.7700005462835123
vt 0.4710373461600712 0.6743671656641872
vt 0.5894347106331775 0.6743671656641872
vt 0.6213125041729526 0.7700005462835123
vt 0.5799846228030431 0.7700005462835123
vt 0.5605948536554005 0.6743671656641872
vt 0.4514784188436083 0.7629928671954569
vt 0.4514784188436083 0.7959948618181831
vt 0.4086930699443304 0.7959948618181831
vt 0.4086930699443304 0.7629928671954569
vt 0.5843413941243096 0.7629928671954569
vt 0.5843413941243096 0.7959948618181831
vt 0.4514784188436083 0.7959948618181831
vt 0.4514784188436083 0.7629928671954569
vt 0.6271267430235875 0.7629928671954569
vt 0.6271267430235875 0.7959948618181831
vt 0.5843413941243096 0.7959948618181831
vt 0.5843413941243096 0.7629928671954569
vt 0.4516475770124285 0.7700005462835123
vt 0.4516475770124285 0.8018783398232874
vt 0.410319695642519 0.8018783398232874
vt 0.410319695642519 0.7700005462835123
vt 0.5799846228030431 0.7700005462835123
vt 0.5799846228030431 0.8018783398232874
vt 0.4516475770124285 0.8018783398232874
vt 0.4516475770124285 0.7700005462835123
vt 0.6213125041729526 0.7700005462835123
vt 0.6213125041729526 0.8018783398232874
vt 0.5799846228030431 0.8018783398232874
vt 0.5799846228030431 0.7700005462835123
vt 0.5843413941243096 0.7959948618181831
vt 0.5341574740587649 0.8124958591295462
vt 0.501662338909153 0.8124958591295462
vt 0.4514784188436083 0.7959948618181831
vt 0.4514784188436083 0.7959948618181831
vt 0.501662338909153 0.8124958591295462
vt 0.49119805650114606 0.8124958591295462
vt 0.4086930699443304 0.7959948618181831
vt 0.6271267430235875 0.7959948618181831
vt 0.5446217564667718 0.8124958591295462
vt 0.5341574740587649 0.8124958591295462
vt 0.5843413941243096 0.7959948618181831
vt 0.541618020323515 0.817817236593175
vt 0.5315101999339366 0.817817236593175
vt 0.6213125041729526 0.8018783398232874
vt 0.5799846228030431 0.8018783398232874
vt 0.4514784188436083 0.7959948618181831
vt 0.5843413941243096 0.7959948618181831
vt 0.5341574740587649 0.8124958591295462
vt 0.501662338909153 0.8124958591295462
vt 0.502075124881535 0.812446142843175
vt 0.4919673044919566 0.812446142843175
vt 0.4584835145124285 0.7813705273232874
vt 0.412272820642519 0.7965072460732874
vt 0.40925300347596316 0.794869154020296
vt 0.27262327450024737 0.8252313160148995
vt 0.25744219350294556 0.734144830031089
vt 0.40925300347596316 0.7645069920256925
vt 0.40925300347596316 0.7645069920256925
vt 0.25744219350294556 0.734144830031089
vt 0.3181665174921527 0.7037826680364855
vt 0.43961516547056667 0.6734205060418819
vt 0.2670672786649357 0.5669964710165679
vt 0.2926168980785442 0.6353895695265267
vt 0.39888446505965647 0.6050274075319231
vt 0.35815376464874626 0.5366343090219643
vt 0.2670672786649357 0.5669964710165679
vt 0.25117728896852426 0.4844612116451317
vt 0.31190161295773133 0.4540990496505283
vt 0.35815376464874626 0.5366343090219643
vt 0.6183507540646089 0.7587645449744307
vt 0.7558160279681637 0.7434906256518135
vt 0.709994270000312 0.8198602222648995
vt 0.6183507540646089 0.7893123836196652
vt 0.5878029154193746 0.6671210290387276
vt 0.6794464313550778 0.697668867683962
vt 0.7558160279681637 0.7434906256518135
vt 0.6183507540646089 0.7587645449744307
vt 0.5878029154193746 0.6671210290387276
vt 0.6604922463453199 0.6049862410659971
vt 0.722213405458406 0.6350457984612314
vt 0.6794464313550778 0.697668867683962
vt 0.7141386085212652 0.5457811405932667
vt 0.7574661858727801 0.46373280541970474
vt 0.8032879438406316 0.4942806440649392
vt 0.764980379561734 0.572422729238501
vt 0.4854798535117891 0.8315286964595823
vt 0.4253826863723754 0.8505330893680196
vt 0.6052126881324873 0.8505330893680196
vt 0.5451155209930734 0.8315286964595823
vt 0.4253826863723754 0.8505330893680196
vt 0.4253826863723756 1
vt 0.6052126881324875 1
vt 0.6052126881324873 0.8505330893680196
vt 0.6052126881324873 0.8505330893680196
vt 0.6352612717021942 0.8204845057983128
vt 0.5751641045627804 0.8014801128898754
vt 0.5451155209930734 0.8315286964595823
vt 0.4854798535117891 0.8315286964595823
vt 0.4554312699420823 0.8014801128898754
vt 0.3953341028026685 0.8204845057983128
vt 0.4253826863723754 0.8505330893680196
vt 0.767910067061734 0.569493041738501
vt 0.725143092958406 0.6321161109612314
vt 0.6636962890625 0.5994873046875
vt 0.7158203125 0.54296875
vt 0.3181665174921527 0.7037826680364855
vt 0.2926168980785442 0.6353895695265267
vt 0.39888446505965647 0.6050274075319231
vt 0.43961516547056667 0.6734205060418819
vn 0 0.894427190999916 0.447213595499958
vn 0 0.894427190999916 0.447213595499958
vn 0.621662838976066 -0.0041303416385645095 0.7832740611779293
vn -0.621662838976066 -0.0041303416385645095 0.7832740611779293
vn 0 0.894427190999916 0.447213595499958
vn 0 0.894427190999916 0.447213595499958
vn 0.621662838976066 -0.0041303416385645095 0.7832740611779293
vn -0.621662838976066 -0.0041303416385645095 0.7832740611779293
vn 0.7777783745996081 0.3555210339271264 0.5183296194899331
vn 0.7792672406265825 0.3505843753580771 -0.5194546789095458
vn 0.01103618987734394 0.3160351286059686 -0.9486832980505139
vn -0.8139882205905291 0.387009683520835 -0.4331820421035101
vn -0.8118352713264431 0.39263605407008767 0.43215786614915597
vn 0.011036189877343961 0.3160351286059694 0.9486832980505138
vn 0.6887019936975715 -0.32367115164568994 0.6487885244587355
vn -2.358342082991006e-16 -6.753408121628756e-15 1
vn -0.8699547404799008 -0.13294811151840968 0.47487213980211224
vn 0.8482458186473737 0.12963051345676083 -0.5134929027047829
vn 0 0 -1
vn -0.7496213306312567 -0.34354706467255897 -0.5657236737290501
vn -0.7815731097132134 -0.22650050077509068 0.5812409116036574
vn -0.005737441915357762 -0.1642988398842027 0.9863939238321439
vn 0.7279008192150422 -0.2584496057556867 0.6351095957949309
vn 0.7221996234979612 -0.2791619542956534 -0.6328477756089806
vn -0.005737441915357768 -0.16429883988420288 -0.9863939238321439
vn -0.6593583014657975 -0.2994845286079381 -0.6896054287870852
vn -0.7078312023485285 0.3356722655373071 0.6215296607008294
vn 0.015607529401462022 0.446941165060879 0.8944271909999196
vn 0.743663569530303 0.2056034840163892 0.6361538357298261
vn 0.7295222746926643 0.2854787760873859 -0.6215296607008303
vn 0.015607529401462242 0.44694116506088544 -0.8944271909999164
vn -0.6805244623567555 0.4198886261916483 -0.6004831369230442
vn 0.033108569632035956 0.9481053858179115 0.31622776601682234
vn 0.03310856963203964 0.948105385817903 0.31622776601684666
vn 0 0 1
vn 0 0 1
vn 0.03310856963202715 0.9481053858179054 -0.31622776601684155
vn -0.03310856963207312 -0.9481053858179163 0.316227766016804
vn 0.02684083879399577 0.10357097083495334 0.9942598369506535
vn 0.18354283828187112 -0.39464181227125944 0.900316536848397
vn 0.010688028411049277 0.4896225276647819 -0.8718689961524236
vn -0.17606411722927015 0.7376783454484785 0.6517914430864163
vn 0 0 1
vn 0.314797697332046 -0.666895559868766 0.6753907920469207
vn 0.5510391742942614 0.5205406014896428 0.6522218262170467
vn 0.6753869834206682 0.4937984907482859 0.5477366823215742
vn -0.09362563766533062 0.25200353507495366 -0.9631866165398516
vn -0.10478941263624579 -0.01951555089073927 -0.9943029328493314
vn -0.008060716886132706 -0.1514510915787767 -0.9884318852115602
vn 0.03754627641724241 -0.04026345200778812 -0.9984834157659389
vn 0.6292413425432024 -0.07632629992829656 0.7734530553134328
vn 0.3738793379994078 0.7688476418509846 0.5187364882455299
usemtl m_e3a0a224-293a-0f4d-f2f1-3a8d45320f75
f 3/1/1 6/2/1 5/3/1
f 3/1/1 5/3/1 4/4/1
f 5/5/2 6/6/2 1/7/2
f 5/5/2 1/7/2 2/8/2
f 2/9/3 8/10/3 7/11/3
f 2/9/3 7/11/3 5/12/3
f 5/13/4 7/14/4 9/15/4
f 5/13/4 9/15/4 4/16/4
f 12/17/5 15/18/5 14/19/5
f 12/17/5 14/19/5 13/20/5
f 14/21/6 15/22/6 10/23/6
f 14/21/6 10/23/6 11/24/6
f 11/25/7 16/26/7 17/27/7
f 11/25/7 17/27/7 14/28/7
f 14/29/8 17/30/8 18/31/8
f 14/29/8 18/31/8 13/32/8
f 19/33/9 21/34/9 22/35/9
f 19/33/9 22/35/9 20/36/9
f 21/37/10 23/38/10 24/39/10
f 21/37/10 24/39/10 22/40/10
f 23/41/11 25/42/11 26/43/11
f 23/41/11 26/43/11 24/44/11
f 25/45/12 27/46/12 28/47/12
f 25/45/12 28/47/12 26/48/12
f 27/49/13 29/50/13 30/51/13
f 27/49/13 30/51/13 28/52/13
f 29/53/14 19/54/14 20/55/14
f 29/53/14 20/55/14 30/56/14
f 22/57/15 31/58/15 32/59/15
f 22/57/15 32/59/15 20/60/15
f 20/61/16 32/62/16 33/63/16
f 20/61/16 33/63/16 30/64/16
f 30/65/17 33/66/17 34/67/17
f 30/65/17 34/67/17 28/68/17
f 24/69/18 35/70/18 31/71/18
f 24/69/18 31/71/18 22/72/18
f 26/73/19 36/74/19 35/75/19
f 26/73/19 35/75/19 24/76/19
f 28/77/20 34/78/20 36/79/20
f 28/77/20 36/79/20 26/80/20
f 33/81/21 37/82/21 38/83/21
f 33/81/21 38/83/21 34/84/21
f 32/85/22 39/86/22 37/87/22
f 32/85/22 37/87/22 33/88/22
f 31/89/23 40/90/23 39/91/23
f 31/89/23 39/91/23 32/92/23
f 35/93/24 41/94/24 40/95/24
f 35/93/24 40/95/24 31/96/24
f 36/97/25 42/98/25 41/99/25
f 36/97/25 41/99/25 35/100/25
f 34/101/26 38/102/26 42/103/26
f 34/101/26 42/103/26 36/104/26
f 37/105/27 43/106/27 44/107/27
f 37/105/27 44/107/27 38/108/27
f 39/109/28 45/110/28 43/111/28
f 39/109/28 43/111/28 37/112/28
f 40/113/29 46/114/29 45/115/29
f 40/113/29 45/115/29 39/116/29
f 41/117/30 47/118/30 46/119/30
f 41/117/30 46/119/30 40/120/30
f 42/121/31 48/122/31 47/123/31
f 42/121/31 47/123/31 41/124/31
f 38/125/32 44/126/32 48/127/32
f 38/125/32 48/127/32 42/128/32
f 45/129/33 49/130/33 50/131/33
f 45/129/33 50/131/33 43/132/33
f 43/133/34 50/134/34 51/135/34
f 43/133/34 51/135/34 44/136/34
f 46/137/35 52/138/35 49/139/35
f 46/137/35 49/139/35 45/140/35
f 51/141/36 53/142/36 44/143/36
f 51/141/36 44/143/36 48/144/36
f 47/145/37 48/146/37 53/147/37
f 47/145/37 53/147/37 54/148/37
f 54/149/38 52/150/38 47/151/38
f 54/149/38 47/151/38 46/152/38
f 44/153/39 55/154/39 56/155/39
f 44/153/39 56/155/39 38/156/39
f 38/157/40 56/158/40 57/159/40
f 38/157/40 57/159/40 34/160/40
f 58/161/41 79/162/41 80/163/41
f 58/161/41 80/163/41 59/164/41
f 58/165/42 60/166/42 61/167/42
f 58/165/42 61/167/42 59/168/42
f 40/169/43 62/170/43 63/171/43
f 40/169/43 63/171/43 46/172/43
f 31/173/44 64/174/44 62/175/44
f 31/173/44 62/175/44 40/176/44
f 31/177/45 78/178/45 77/179/45
f 31/177/45 77/179/45 64/180/45
f 65/181/46 67/182/46 68/183/46
f 65/181/46 68/183/46 66/184/46
f 53/185/47 69/186/47 70/187/47
f 53/185/47 70/187/47 54/188/47
f 69/189/48 71/190/48 72/191/48
f 69/189/48 72/191/48 70/192/48
f 70/193/49 73/194/49 74/195/49
f 70/193/49 74/195/49 54/196/49
f 53/197/50 75/198/50 76/199/50
f 53/197/50 76/199/50 69/200/50
f 66/201/51 77/202/51 78/203/51
f 66/201/51 78/203/51 65/204/51
f 57/205/52 79/206/52 80/207/52
f 57/205/52 80/207/52 34/208/52