# Blender v3.3.0 OBJ File: ''
# www.blender.org
o cube
v 0.500000 0.000000 0.000000
v -0.500000 0.000000 0.000000
v -0.500000 0.687500 0.000000
v 0.500000 0.687500 0.000000
v 0.500000 0.000000 0.000000
v 0.500000 0.687500 0.000000
v -0.500000 0.000000 0.000000
v -0.500000 0.687500 0.000000
vt 0.500000 0.312500
vt 0.000000 0.656250
vt 0.000000 0.312500
vt 0.000000 0.656250
vt 0.000000 1.000000
vt 0.000000 1.000000
vt 0.500000 0.312500
vt 0.000000 0.656250
vt 0.000000 0.312500
vt 0.000000 0.656250
vt 0.000000 1.000000
vt 0.000000 1.000000
vt 0.500000 1.000000
vt 0.500000 1.000000
vt 0.500000 1.000000
vt 0.000000 1.000000
vt 0.500000 1.000000
vt 0.500000 0.656250
vt 0.000000 0.656250
vt 0.500000 0.656250
vt 0.000000 0.656250
vt 0.000000 1.000000
vn 0.0000 0.0000 -1.0000
vn 0.0000 0.0000 0.0000
vn 1.0000 0.0000 -0.0000
vn 0.0000 -0.0000 1.0000
vn -1.0000 -0.0000 -0.0000
vn -0.0000 1.0000 -0.0000
vn 0.0000 -1.0000 -0.0000
s 1
f 2/1/1 4/2/1 1/3/1
f 5/4/2 4/5/2 6/6/3
f 5/7/4 8/8/4 7/9/4
f 2/10/2 8/11/2 3/12/5
f 8/13/6 4/5/6 3/14/2
f 2/15/7 5/16/7 7/17/2
f 2/1/1 3/18/1 4/2/1
f 5/4/2 1/19/3 4/5/2
f 5/7/4 6/20/4 8/8/4
f 2/10/2 7/21/5 8/11/2
f 8/13/6 6/6/2 4/5/6
f 2/15/7 1/22/2 5/16/7
