<?xml version="1.0" encoding="utf-8"?>
<!-- Generator: Adobe Illustrator 28.0.0, SVG Export Plug-In . SVG Version: 6.00 Build 0)  -->
<svg version="1.1" id="Layer_1" xmlns="http://www.w3.org/2000/svg" xmlns:xlink="http://www.w3.org/1999/xlink" x="0px" y="0px"
	 width="558.7px" height="441.4px" viewBox="0 0 558.7 441.4" enable-background="new 0 0 558.7 441.4" xml:space="preserve">
<polygon points="237.6,49 231.3,69.2 221,75.1 188.7,93.4 180.2,103.3 147.9,124 130.4,149.5 113.8,169.3 101.2,174.6 68.9,162.5 
	57.2,167 49.2,167.5 42.9,178.7 51.4,187.7 62.6,190.8 70.3,190.8 95.8,195.7 101.2,209.2 97.6,229.8 96.7,254 98.1,270.6 
	86.4,282.3 53.7,293.5 22.8,298.2 13.1,309.7 17.1,322 45.4,330.5 72.3,320.1 100.4,302.8 139.9,356.8 140.9,365 109.3,385.7 
	87.7,392.6 81.9,407.7 86.9,422.7 110,429.6 171.4,387.2 213.6,412 260.2,424.5 314.3,418.5 360,395.1 392.9,363.5 420.8,325.8 
	443.7,268.3 461.2,269 461.2,323.1 467.9,334.9 476.7,333.6 495.9,317.4 499.6,269.3 528.5,273.3 545.3,262.9 552,254.8 545,237.3 
	460.2,237 448.4,234 410.4,156.3 389.9,127 371.7,112.5 347.1,93.3 285.6,66.8 269.1,62 260.7,47.2 258,28.7 257,14.6 245.5,14.6 
	232.8,14.6 224.7,23.7 227.7,34.5 "/>
</svg>
